Coordinates
version=1
nRows=11
nColumns=40
inDegrees=yes

Units are S.I. units (second, meters, Newtons, ...)
Angles are in degrees.

endheader
time	pelvis_tilt	pelvis_list	pelvis_rotation	pelvis_tx	pelvis_ty	pelvis_tz	hip_flexion_r	hip_adduction_r	hip_rotation_r	knee_angle_r	knee_angle_r_beta	ankle_angle_r	subtalar_angle_r	mtp_angle_r	hip_flexion_l	hip_adduction_l	hip_rotation_l	knee_angle_l	knee_angle_l_beta	ankle_angle_l	subtalar_angle_l	mtp_angle_l	lumbar_extension	lumbar_bending	lumbar_rotation	arm_flex_r	arm_add_r	arm_rot_r	elbow_flex_r	pro_sup_r	wrist_flex_r	wrist_dev_r	arm_flex_l	arm_add_l	arm_rot_l	elbow_flex_l	pro_sup_l	wrist_flex_l	wrist_dev_l
      1.89000000	      5.67786786	      0.80605500	      3.88796267	      0.51500389	      0.90095480	     -1.47089853	     21.24299908	     -1.76415865	    -12.11697123	    -32.61543246	     -0.56924668	      1.19748236	     -7.95939177	      7.49400026	    -10.38516482	     -4.36930303	      7.32955808	    -12.01090550	     -0.20962985	     11.43909493	     -6.75542203	     -5.83706519	    -11.83062334	      2.13898880	     -4.61744127	      1.98280592	     -8.49019050	     15.66901983	     14.23163874	     89.95437384	      0.00000000	      0.00000000	     17.14342732	     11.28491471	    -13.25861754	     32.62817020	     89.95437384	      0.00000000	      0.00000000
      1.90000000	      5.97087574	      0.56272446	      4.10295820	      0.52453578	      0.90028526	     -1.47137257	     20.88519597	     -1.57239000	    -14.04954564	    -29.94253143	     -0.52259576	      0.55778714	     -7.03197885	      7.45863528	    -11.35412174	     -3.99175091	      7.25596217	    -12.10081268	     -0.21119902	     11.91398525	     -6.85422179	     -5.90883838	    -12.12090879	      2.52632959	     -4.72379075	      1.75332212	     -8.50594783	     15.81308930	     13.70561285	     89.95437384	      0.00000000	      0.00000000	     17.63045356	     11.34639868	    -12.97000054	     33.77074929	     89.95437384	      0.00000000	      0.00000000
      1.91000000	      6.03357282	      0.55575133	      4.19158079	      0.53398001	      0.89924611	     -1.47175427	     20.83609053	     -1.58635591	    -15.76208243	    -27.58963143	     -0.48152991	      0.18192702	     -5.89021649	      7.06326219	    -12.06521476	     -3.91577936	      7.33070780	    -12.18847272	     -0.21272898	     12.11501474	     -7.06585653	     -5.98960305	    -12.18960565	      2.60533237	     -4.70244151	      1.42169209	     -8.52900594	     15.97192554	     13.36125915	     89.95437384	      0.00000000	      0.00000000	     18.07271881	     11.43693546	    -12.90512759	     34.88863610	     89.95437384	      0.00000000	      0.00000000
      1.92000000	      5.77041558	      0.53252811	      4.17188279	      0.54317736	      0.89769722	     -1.47183029	     21.20327958	     -1.49001401	    -17.12665310	    -25.49812193	     -0.44502618	     -0.23842085	     -4.75613674	      6.76994412	    -12.32607976	     -3.85837141	      7.51399472	    -12.43174109	     -0.21697481	     12.51656516	     -7.11947865	     -6.05203762	    -11.91979413	      2.65059263	     -4.62355449	      1.17198457	     -8.49812074	     15.96300740	     12.89939688	     89.95437384	      0.00000000	      0.00000000	     18.39609845	     11.57129537	    -12.87088593	     36.05855017	     89.95437384	      0.00000000	      0.00000000
      1.93000000	      5.81277701	      0.42966459	      4.33262181	      0.55281331	      0.89666348	     -1.47204516	     21.09477276	     -1.40038211	    -19.02944863	    -23.54533474	     -0.41094361	     -0.44288218	     -3.09677846	      6.05699800	    -12.94484406	     -3.61365282	      7.67231510	    -12.67618008	     -0.22124108	     12.67169158	     -7.53262724	     -6.16391118	    -11.92998277	      2.81678031	     -4.69248929	      0.87916559	     -8.46192097	     15.86841328	     12.53489239	     89.95437384	      0.00000000	      0.00000000	     18.71905382	     11.66501481	    -12.83455210	     37.08532271	     89.95437384	      0.00000000	      0.00000000
      1.94000000	      5.43451358	      0.43775018	      4.30399185	      0.56213833	      0.89502945	     -1.47207075	     21.51065807	     -1.24923183	    -20.01739547	    -21.87123358	     -0.38172504	     -0.69859108	     -2.09976503	      5.76236607	    -13.07830339	     -3.59163905	      7.69758740	    -12.93126802	     -0.22569320	     12.72152721	     -7.65138484	     -6.19549298	    -11.52964864	      2.81592991	     -4.63340512	      0.59883338	     -8.44083004	     15.73967014	     12.21094036	     89.95437384	      0.00000000	      0.00000000	     18.88673831	     11.77325454	    -12.74682204	     38.23010505	     89.95437384	      0.00000000	      0.00000000
      1.95000000	      5.19353877	      0.36164004	      4.44631879	      0.57176328	      0.89371808	     -1.47222177	     21.65505304	     -1.03876575	    -21.18121776	    -20.33832180	     -0.35497068	     -0.96631168	     -1.11046246	      5.51074613	    -13.36712419	     -3.39394108	      7.79716738	    -13.17231616	     -0.22990029	     12.96466625	     -7.81785331	     -6.27379514	    -11.21808829	      2.92930923	     -4.73400615	      0.33789806	     -8.39461777	     15.62425047	     11.83662940	     89.95437384	      0.00000000	      0.00000000	     19.09541720	     11.85280946	    -12.76115065	     39.04966552	     89.95437384	      0.00000000	      0.00000000
      1.96000000	      5.46040017	     -0.00478692	      4.73536081	      0.58209733	      0.89311357	     -1.47229533	     21.10016563	     -0.74743901	    -23.61890995	    -18.95915631	     -0.33089970	     -2.26588097	      0.99907522	     -3.80928070	    -14.07587825	     -2.57173627	      8.73193569	    -13.71225360	     -0.23932397	     12.41812893	     -9.88618024	     -7.57394831	    -11.38303682	      3.39917336	     -4.87619609	      0.10543408	     -8.30414644	     15.02035751	     11.40825546	     89.95437384	      0.00000000	      0.00000000	     19.12126412	     11.87888685	    -12.54214463	     40.11266281	     89.95437384	      0.00000000	      0.00000000
      1.97000000	      5.17706300	     -0.11274455	      4.88498725	      0.59180317	      0.89187901	     -1.47237873	     21.19995640	     -0.42205230	    -24.18253368	    -17.90796316	     -0.31255292	     -2.43323693	      1.62377433	     -3.86059879	    -14.21655529	     -2.33810490	      8.48981128	    -14.14010759	     -0.24679143	     12.55386275	     -9.81107216	     -7.58701274	    -11.04630583	      3.54166712	     -4.99223740	     -0.12188814	     -8.27932605	     15.00179488	     11.13326220	     89.95437384	      0.00000000	      0.00000000	     19.10325434	     11.94175769	    -12.38018658	     41.06352927	     89.95437384	      0.00000000	      0.00000000
      1.98000000	      5.16036549	     -0.33241802	      5.18126593	      0.60203940	      0.89116192	     -1.47281939	     20.87376858	     -0.06416941	    -24.99430136	    -17.09058836	     -0.29828704	     -2.56368856	      2.38253512	     -4.04459357	    -14.61927131	     -1.88643270	      8.40937066	    -14.66900885	     -0.25602250	     12.60864174	     -9.96394768	     -7.64652336	    -10.90477043	      3.87803832	     -5.21188905	     -0.33889356	     -8.27480799	     14.87386231	     10.81131091	     89.95437384	      0.00000000	      0.00000000	     19.07953092	     11.82902100	    -12.08659173	     41.69402008	     89.95437384	      0.00000000	      0.00000000
      1.99000000	      4.87447313	     -0.27746040	      5.20924363	      0.61221307	      0.88999383	     -1.47299113	     21.02381215	      0.02619337	    -25.03340008	    -17.02404835	     -0.29712570	     -2.45145188	      2.40073781	     -4.02823736	    -14.80408527	     -1.86693302	      8.18246656	    -15.09084500	     -0.26338493	     12.44331896	     -9.87351091	     -7.57914536	    -10.52678381	      3.83463926	     -5.08473941	     -0.71251040	     -8.31246460	     14.85636529	     10.74465785	     89.95437384	      0.00000000	      0.00000000	     19.08715500	     11.71303026	    -11.99127252	     42.23217247	     89.95437384	      0.00000000	      0.00000000
